# xmcd
#
# Track frame offsets:
#	150
#	19178
#	35806
#	51444
#	69946
#	91142
#	106924
#	125431
#	144722
#	158683
#	180871
#	200536
#	217198
#	248037
#
# Disc length: 4171 seconds
#
# Revision: 5
# Processed by: cddbd v1.5.1PL0 Copyright (c) Steve Scherf et al.
# Submitted via: EasyCDDAExtractor 7.5.2.1
#
DISCID=c310490e
DTITLE=Will Young  - From Now On
DYEAR=2002
DGENRE=Blues
TTITLE0=Evergreen
TTITLE1=Anything Is Possible
TTITLE2=Light My Fire
TTITLE3=Lover Won't You Stay
TTITLE4=Lovestruck
TTITLE5=The Long And Winding Road
TTITLE6=You And I
TTITLE7=Side By Side
TTITLE8=What's In Goodbye
TTITLE9=Cruel To Be Kind
TTITLE10=Over You
TTITLE11=From Now On
TTITLE12=Fine Line
TTITLE13=DATA
EXTD=The Long and Winding Road is duet with Gareth Gates YEAR: 2002
EXTT0=
EXTT1=
EXTT2=
EXTT3=
EXTT4=
EXTT5=
EXTT6=
EXTT7=
EXTT8=
EXTT9=
EXTT10=
EXTT11=
EXTT12=
EXTT13=
PLAYORDER=
